<!--?xml version="1.0" standalone="no"?-->

<svg version="1.0" xmlns="http://www.w3.org/2000/svg" width="300.000000pt" height="300.000000pt" viewBox="0 0 300.000000 300.000000" preserveAspectRatio="xMidYMid meet">
<g transform="translate(0.000000,300.000000) scale(0.100000,-0.100000)" fill="#4D4D4D" stroke="none">
<path class="node" id="node1" d="M2076 2733 c-71 -89 -99 -155 -104 -241 -5 -92 16 -154 107 -307 109
-185 132 -266 97 -350 -18 -42 -9 -45 26 -7 76 81 106 168 88 260 -11 59 -43
130 -110 247 -26 44 -59 113 -75 152 -24 61 -27 82 -23 140 3 42 13 84 27 111
12 24 20 46 18 49 -3 3 -26 -22 -51 -54z"></path>
<path class="node" id="node2" d="M2508 2278 c-50 -65 -68 -114 -68 -180 0 -69 17 -114 89 -235 56 -97
77 -165 63 -211 -14 -45 -8 -52 18 -21 40 47 60 97 60 151 0 46 -10 73 -75
201 -68 135 -75 153 -75 208 0 34 7 73 15 89 21 40 4 38 -27 -2z"></path>
<path class="node" id="node3" d="M1445 2056 c-130 -32 -211 -121 -222 -246 l-5 -56 -67 -18 c-500
-140 -881 -573 -950 -1079 -6 -43 -11 -103 -11 -133 l0 -55 92 3 93 3 8 90
c37 443 343 830 763 968 103 34 122 34 59 1 -257 -137 -443 -389 -535 -729
-24 -86 -52 -315 -41 -328 4 -4 419 -6 922 -5 l914 3 -3 65 c-13 257 -105 510
-257 705 -72 92 -123 141 -217 209 -38 26 -68 49 -68 51 0 7 91 -36 144 -67
308 -181 512 -494 548 -838 5 -58 12 -111 14 -118 2 -8 30 -12 94 -12 l90 0 0
54 c0 187 -72 435 -178 611 -175 291 -462 511 -784 601 l-68 19 0 37 c0 88
-56 185 -131 227 -35 20 -133 52 -149 50 -3 0 -27 -6 -55 -13z m92 -166 c24 0
73 -56 73 -84 l0 -26 -110 0 c-109 0 -110 0 -110 24 0 48 74 104 118 90 8 -2
20 -4 29 -4z"></path>
<path class="node" id="node4" d="M105 368 c-63 -22 -110 -88 -103 -144 l3 -29 1493 -3 c1324 -2 1493
0 1498 13 21 52 -38 143 -104 163 -53 16 -2742 16 -2787 0z"></path>
</g>
<g transform="translate(0.000000,300.000000) scale(0.100000,-0.100000)" fill="#FFFFFF" stroke="none">

<path class="node" id="node6" d="M1463 1889 c-38 -11 -73 -52 -73 -85 0 -24 1 -24 110 -24 l110 0 0
26 c0 28 -49 84 -73 84 -9 0 -21 2 -29 4 -7 2 -27 0 -45 -5z"></path>
<path class="node" id="node7" d="M0 98 l0 -98 1500 0 1500 0 0 98 0 97 -1500 0 -1500 0 0 -97z"></path>
</g>
</svg>